<svg xmlns="http://www.w3.org/2000/svg" viewBox="0 0 300 100">
    <g fill="#FFFFFF">
    <path d="M5.712 4.986H30.37q9.572 0 14.357 5.306 4.786 5.306 4.89 15.71l.208 41.824q.104 13.213-4.577 19.871-4.682 6.659-15.502 6.659H5.712zm21.12 73.556q4.89 0 4.89-4.786v-46.09q0-3.017-.52-4.473-.416-1.561-1.664-2.081-1.249-.52-3.85-.52h-1.977v57.95zM56.92 94.356V4.986h35.79V22.36H74.918v14.254h16.854V53.78H74.92v40.576z" style="-inkscape-font-specification:Anton"/>
    <path d="M103.463 53.749l.15 3.745Q107.32 53 113.387 53q6.777 0 9.473 5.88Q126.68 53 133.495 53q11.196 0 11.458 13.967v27.298h-6.59V67.604q0-4.419-1.573-6.553-1.573-2.172-5.317-2.172-2.996 0-4.868 2.322-1.872 2.321-2.172 5.916v27.148h-6.665v-26.96q-.113-8.426-6.853-8.426-5.018 0-7.077 5.018v30.368h-6.59V53.75zM153.491 72.135q0-8.837 4.269-13.967Q162.066 53 169.106 53t11.309 5.018q4.306 5.018 4.418 13.668v4.268q0 8.8-4.269 13.93-4.268 5.13-11.383 5.13-7.04 0-11.309-4.98-4.231-4.98-4.38-13.48zm6.628 3.82q0 6.253 2.434 9.848 2.471 3.557 6.628 3.557 8.762 0 9.024-12.657v-4.568q0-6.216-2.471-9.81-2.472-3.633-6.628-3.633-4.082 0-6.553 3.632-2.434 3.595-2.434 9.774zM222.729 75.954q0 9.474-3.408 14.267-3.408 4.793-9.886 4.793-6.44 0-9.66-5.542l-.338 4.793h-6.029V36.75h6.59v21.456Q203.258 53 209.36 53q6.666 0 9.998 4.718 3.333 4.718 3.37 14.23zm-6.591-3.782q0-7.19-2.022-10.222-1.985-3.07-6.478-3.07-5.13 0-7.64 5.541v19.285q2.472 5.467 7.715 5.467 4.493 0 6.44-3.146 1.948-3.145 1.985-9.773zM238.418 94.265h-6.628V53.75h6.628zm.525-51.263q0 1.685-.937 2.808-.936 1.124-2.845 1.124-1.873 0-2.809-1.124-.936-1.123-.936-2.808 0-1.685.936-2.846.936-1.16 2.809-1.16 1.872 0 2.808 1.198.974 1.16.974 2.808zM255.943 94.265h-6.628V36.75h6.628zM280.807 95.014q-7.564 0-11.608-4.493-4.044-4.531-4.12-13.256V72.36q0-9.062 3.933-14.192Q272.98 53 280.058 53q7.115 0 10.635 4.531 3.52 4.531 3.595 14.117v4.344H271.67v.936q0 6.516 2.434 9.474 2.472 2.958 7.078 2.958 2.92 0 5.13-1.086 2.246-1.123 4.194-3.52l3.445 4.194q-4.307 6.066-13.144 6.066zm-.749-36.322q-4.119 0-6.104 2.846-1.984 2.808-2.246 8.762h15.952v-.899q-.262-5.766-2.097-8.238-1.798-2.471-5.505-2.471z"/>
</g>
</svg>